<?xml version="1.0" standalone="no"?>
<!DOCTYPE svg PUBLIC "-//W3C//DTD SVG 20010904//EN"
 "http://www.w3.org/TR/2001/REC-SVG-20010904/DTD/svg10.dtd">
<svg version="1.0" xmlns="http://www.w3.org/2000/svg"
 width="700.000000pt" height="700.000000pt" viewBox="0 0 700.000000 700.000000"
 preserveAspectRatio="xMidYMid meet">
<metadata>
Created by potrace 1.14, written by Peter Selinger 2001-2017
</metadata>
<g transform="translate(0.000000,700.000000) scale(0.100000,-0.100000)"
fill="#000000" stroke="none">
<path d="M3348 6985 c-2 -2 -41 -6 -88 -9 -47 -4 -101 -8 -120 -11 -19 -3 -56
-7 -81 -10 -25 -3 -56 -8 -69 -10 -13 -3 -41 -7 -61 -10 -210 -32 -586 -145
-799 -242 -392 -178 -703 -384 -999 -661 -355 -332 -624 -724 -836 -1217 -123
-286 -224 -702 -252 -1040 -14 -169 -7 -590 11 -693 4 -21 17 -108 21 -143 25
-193 109 -499 202 -734 261 -660 697 -1209 1278 -1607 277 -190 589 -341 905
-440 52 -16 102 -31 110 -33 8 -2 51 -12 95 -24 44 -11 96 -23 115 -26 19 -3
53 -10 75 -15 22 -5 58 -11 80 -14 22 -4 54 -9 70 -11 218 -36 708 -41 925 -9
374 55 685 141 983 274 796 354 1417 971 1780 1770 71 154 175 453 202 575 79
369 97 516 100 825 1 135 -1 277 -6 315 -4 39 -10 99 -14 135 -3 36 -8 72 -10
80 -2 8 -6 33 -10 55 -41 286 -149 637 -284 928 l-40 87 -61 0 c-33 0 -60 -2
-60 -5 0 -3 21 -46 46 -96 162 -323 284 -759 321 -1146 16 -159 8 -647 -11
-750 -2 -10 -7 -40 -10 -68 -67 -504 -300 -1071 -619 -1505 -164 -223 -401
-473 -592 -625 -27 -22 -52 -42 -55 -45 -3 -4 -52 -40 -110 -82 -253 -183
-557 -342 -852 -447 -75 -26 -270 -86 -318 -97 -64 -14 -283 -56 -315 -60 -22
-2 -51 -6 -65 -9 -140 -28 -696 -28 -860 0 -14 2 -45 7 -70 10 -248 33 -584
129 -840 239 -234 102 -530 276 -731 432 -395 306 -740 723 -955 1155 -155
312 -265 640 -313 934 -7 39 -16 95 -21 125 -32 179 -35 790 -5 900 2 8 6 38
10 65 11 88 54 297 80 390 14 50 28 97 30 105 6 25 76 223 90 255 7 17 23 55
35 85 110 271 324 615 544 875 59 70 280 293 346 350 551 472 1206 755 1908
823 156 15 721 5 752 -13 3 -1 32 -6 65 -10 33 -3 114 -18 180 -31 66 -14 130
-27 142 -30 31 -6 283 -83 308 -93 11 -5 70 -28 130 -51 308 -120 643 -319
920 -550 103 -85 330 -309 395 -390 95 -116 93 -115 165 -116 36 0 65 2 65 4
0 8 -142 180 -207 251 -83 92 -257 260 -333 323 -36 29 -73 61 -84 70 -10 9
-70 54 -133 99 -311 223 -666 399 -1010 499 -75 22 -147 42 -158 44 -11 3 -58
13 -105 24 -47 11 -105 23 -130 26 -25 3 -54 8 -65 10 -40 8 -172 26 -235 32
-66 6 -487 14 -492 9z"/>
<path d="M3289 6697 c-2 -3 -47 -8 -99 -12 -52 -3 -97 -8 -100 -10 -3 -2 -32
-6 -64 -9 -77 -8 -262 -48 -401 -87 -464 -128 -935 -392 -1293 -724 -55 -51
-177 -175 -232 -234 -57 -63 -178 -217 -214 -272 l-17 -27 37 1 c34 1 42 8
129 117 491 617 1176 1027 1930 1155 236 40 641 54 845 30 166 -20 182 -23
251 -35 627 -111 1218 -426 1682 -897 85 -86 102 -99 132 -100 19 0 35 4 35 9
0 14 -163 181 -290 298 -179 165 -488 368 -744 490 -202 96 -520 206 -672 234
-16 2 -63 11 -104 20 -93 18 -141 26 -205 32 -27 3 -61 8 -75 10 -31 7 -524
16 -531 11z"/>
<path d="M1920 5713 c-84 -24 -90 -45 -90 -318 l0 -225 -525 0 c-506 0 -528
-1 -588 -21 -130 -43 -220 -143 -249 -274 -12 -50 -17 -264 -9 -382 2 -35 57
-83 96 -83 48 0 81 15 102 47 15 23 19 56 23 209 6 203 10 217 81 259 33 20
53 20 1173 21 1131 0 1140 0 1180 -20 73 -37 84 -72 85 -264 2 -183 9 -209 66
-237 49 -23 110 -4 141 42 12 20 16 57 16 186 1 89 -3 182 -7 207 -10 61 -60
154 -110 203 -44 44 -141 94 -195 101 -19 3 -267 5 -550 5 l-515 1 1 222 c1
227 -4 267 -38 296 -20 16 -69 30 -88 25z"/>
<path d="M3794 5406 c-26 -26 -34 -42 -34 -70 0 -41 22 -81 54 -99 31 -17
2778 -19 2821 -2 82 33 95 141 22 185 -31 19 -63 20 -1430 20 l-1399 0 -34
-34z"/>
<path d="M6284 4948 c186 -358 300 -743 343 -1162 10 -95 10 -470 0 -575 -6
-72 -15 -135 -43 -306 -2 -16 -9 -43 -13 -60 -5 -16 -12 -48 -16 -69 -9 -57
-77 -275 -119 -386 -19 -52 -32 -97 -28 -101 4 -4 17 -10 28 -13 20 -6 25 1
52 71 58 153 129 396 147 503 3 19 8 42 10 50 6 21 14 67 21 120 3 25 7 56 10
70 27 157 27 632 -1 830 -53 373 -141 660 -308 1003 l-72 147 -37 0 -37 0 63
-122z"/>
<path d="M5204 4883 c-12 -2 -34 -18 -50 -34 l-29 -30 0 -1329 c0 -731 -3
-1331 -6 -1335 -13 -13 -492 -5 -545 9 -159 42 -293 185 -322 343 -5 29 -9
248 -9 486 0 385 -2 437 -17 465 -45 87 -194 57 -197 -40 -5 -185 -2 -841 4
-901 26 -256 207 -471 471 -560 59 -20 84 -21 949 -24 976 -3 930 -6 962 57
19 37 19 63 -1 101 -30 58 -35 59 -579 59 l-495 0 0 575 0 575 251 0 c287 0
346 9 474 70 94 46 174 112 237 195 55 72 78 118 108 210 22 67 23 87 25 415
2 265 -1 351 -10 370 -34 67 -152 72 -186 9 -17 -32 -18 -49 -19 -382 -1 -212
-5 -310 -14 -340 -49 -161 -166 -275 -326 -317 -29 -8 -134 -13 -290 -14
l-245 -1 -5 650 c-5 607 -6 652 -23 677 -16 23 -67 51 -86 47 -3 -1 -16 -4
-27 -6z"/>
<path d="M2701 4319 c-17 -10 -36 -31 -41 -45 -6 -14 -10 -126 -10 -250 0
-123 -3 -224 -7 -225 -5 -1 -478 -2 -1053 -3 -815 -1 -1050 -4 -1067 -14 -72
-41 -71 -152 2 -187 29 -13 155 -15 1079 -15 l1046 0 2 -786 3 -786 33 -29
c36 -32 77 -37 120 -15 59 30 57 -1 57 840 l0 771 243 5 244 5 29 33 c33 37
37 77 14 122 -27 52 -41 54 -286 55 -124 1 -229 4 -235 7 -6 4 -9 89 -9 215 1
114 -2 222 -7 239 -18 68 -97 100 -157 63z"/>
<path d="M391 4273 c-84 -326 -116 -795 -76 -1103 2 -19 7 -57 10 -85 35 -316
164 -728 325 -1041 126 -243 226 -392 430 -639 63 -77 307 -312 410 -395 302
-244 655 -434 1030 -556 142 -46 395 -106 505 -119 28 -3 59 -8 70 -10 60 -13
204 -20 395 -20 261 0 338 6 555 41 161 26 494 117 600 164 11 5 74 32 140 60
198 84 414 207 595 339 190 138 284 224 522 472 53 56 256 324 292 386 5 10
-3 13 -32 13 -31 0 -41 -5 -52 -24 -12 -23 -18 -25 -90 -25 -102 0 -158 -8
-258 -37 -159 -46 -274 -113 -550 -322 -179 -134 -249 -178 -363 -224 -96 -39
-158 -48 -304 -43 -193 6 -263 21 -470 102 -194 76 -276 92 -450 88 -77 -2
-153 -6 -170 -9 -16 -4 -52 -11 -80 -17 -27 -6 -63 -13 -80 -16 -56 -9 -350
-111 -470 -163 -66 -28 -125 -54 -132 -57 -7 -3 -23 18 -39 49 -109 216 -256
357 -445 426 -70 25 -204 56 -374 87 -16 2 -43 7 -60 10 -55 10 -199 57 -240
77 -54 28 -125 104 -157 169 -40 82 -57 140 -85 288 -41 217 -75 281 -183 344
-83 48 -241 72 -345 52 -70 -14 -159 -38 -183 -51 -50 -26 -47 -32 -101 161
-26 91 -40 146 -47 184 -1 7 -7 34 -13 60 -13 55 -19 91 -26 151 -3 25 -8 54
-10 65 -26 132 -27 631 -1 785 3 14 7 48 11 75 6 52 55 296 61 306 1 3 -10 13
-26 22 l-29 18 -10 -38z m629 -1809 c71 -27 122 -66 156 -116 28 -41 38 -73
51 -158 12 -82 48 -234 69 -290 34 -90 68 -143 122 -197 83 -80 203 -126 442
-169 14 -3 57 -11 95 -19 39 -8 86 -17 105 -20 68 -11 189 -56 249 -93 224
-137 365 -401 488 -919 12 -49 8 -51 -61 -30 l-39 12 -24 120 c-106 528 -352
794 -793 860 -25 4 -49 8 -55 9 -5 2 -32 6 -60 10 -72 11 -208 51 -270 80
-183 84 -280 210 -325 426 -50 237 -123 350 -256 395 -79 27 -217 18 -315 -20
-15 -6 -39 30 -39 59 0 16 89 51 180 70 84 18 222 13 280 -10z m-80 -144 c97
-50 163 -165 195 -340 41 -225 142 -365 329 -454 81 -39 197 -76 281 -90 17
-3 71 -12 120 -20 377 -63 587 -239 714 -600 18 -49 36 -110 42 -135 6 -25 13
-55 15 -66 3 -11 7 -33 9 -48 2 -16 7 -42 10 -58 8 -35 2 -36 -80 -10 -64 20
-62 16 -80 116 -12 65 -58 200 -91 271 -94 197 -249 332 -465 403 -77 25 -67
23 -244 61 -234 50 -333 89 -447 174 -114 84 -204 226 -279 441 -59 168 -99
224 -177 244 -36 10 -95 8 -131 -4 -14 -4 -23 5 -40 44 -11 27 -21 54 -21 59
0 10 110 39 165 44 53 5 130 -9 175 -32z m-128 -151 c51 -27 72 -62 134 -231
104 -283 208 -416 399 -511 96 -48 139 -61 345 -107 303 -67 430 -126 553
-255 56 -58 92 -114 137 -207 52 -109 116 -336 92 -326 -4 2 -38 14 -74 27
-54 20 -68 29 -73 50 -14 54 -108 234 -156 298 -115 151 -228 222 -454 284
-271 74 -435 140 -546 223 -79 58 -257 292 -265 347 -32 220 -67 289 -149 289
-40 0 -42 2 -69 56 -15 31 -24 60 -19 65 20 18 108 18 145 -2z m-20 -160 c11
-6 27 -27 35 -47 16 -38 44 -154 38 -160 -3 -3 -61 88 -108 171 -27 46 -27 47
-7 47 12 0 30 -5 42 -11z m5258 -334 c0 -3 -4 -11 -10 -18 -5 -7 -30 -39 -54
-71 l-44 -60 -82 -18 c-148 -31 -254 -91 -570 -316 -223 -160 -377 -237 -530
-266 -168 -32 -362 -9 -657 79 -100 29 -223 61 -275 71 -100 19 -296 24 -412
11 -147 -17 -424 -100 -602 -182 l-70 -32 -21 52 -20 52 51 22 c215 94 324
135 467 176 250 72 482 88 654 44 22 -6 110 -37 195 -69 215 -81 324 -102 530
-101 219 1 384 73 660 291 229 180 416 284 566 315 94 19 224 31 224 20z
m-202 -257 c-121 -136 -305 -307 -451 -418 -105 -79 -417 -198 -593 -226 -20
-3 -46 -8 -58 -10 -59 -13 -134 -17 -256 -17 -201 1 -275 16 -575 116 l-210
70 -125 1 c-69 1 -147 -2 -175 -6 -119 -15 -402 -102 -569 -173 -21 -9 -42
-13 -46 -8 -9 10 -30 72 -30 88 0 13 131 74 245 115 217 78 423 117 600 114
169 -2 230 -14 525 -99 185 -53 211 -59 305 -73 68 -9 270 -9 323 1 174 32
326 110 600 309 230 167 336 227 462 264 41 12 77 20 79 18 2 -2 -21 -32 -51
-66z m-4379 -188 c52 -18 103 -34 113 -36 68 -15 173 -45 233 -66 209 -72 333
-197 450 -455 l33 -72 -26 10 c-15 6 -56 24 -92 40 -57 27 -70 39 -108 98 -64
99 -173 208 -267 268 -80 51 -159 82 -252 98 -125 23 -124 22 -210 106 -122
119 -124 122 -41 79 41 -22 116 -53 167 -70z m94 -145 c82 -15 174 -57 263
-121 65 -46 187 -171 218 -224 l18 -32 -32 17 c-125 65 -341 206 -462 302 -77
61 -88 74 -56 67 13 -2 35 -6 51 -9z m2140 -191 c34 -7 134 -38 222 -68 213
-73 272 -87 430 -105 80 -9 264 -7 345 3 125 16 380 84 443 118 10 5 21 7 24
5 8 -8 -184 -117 -322 -182 -175 -83 -229 -101 -295 -99 -68 2 -227 13 -261
18 -13 3 -46 7 -74 11 -81 10 -201 42 -330 85 -66 23 -151 48 -190 56 -66 14
-255 21 -285 10 -8 -3 -33 -7 -55 -10 -82 -9 -320 -78 -463 -135 -29 -12 -55
-21 -57 -21 -5 0 -35 99 -35 115 0 6 24 21 53 33 224 91 414 147 597 176 52 8
194 3 253 -10z m-23 -188 c41 -8 129 -33 195 -55 158 -53 289 -84 405 -96 30
-3 71 -8 90 -10 19 -2 62 -4 95 -5 74 -1 63 -9 -71 -50 -145 -45 -157 -46
-251 -11 -45 17 -92 32 -105 35 -13 2 -50 11 -83 20 -33 8 -78 18 -100 21 -22
4 -47 8 -55 10 -42 11 -170 19 -295 18 -220 -2 -400 -49 -528 -140 -41 -28
-52 -32 -79 -25 -28 7 -34 15 -45 57 -7 28 -13 55 -13 61 0 26 399 154 550
176 68 10 223 7 290 -6z m70 -166 c100 -12 148 -23 289 -62 108 -30 150 -47
121 -48 -8 -1 -51 -9 -95 -18 -83 -18 -122 -20 -190 -8 -22 3 -65 10 -95 15
-30 5 -125 8 -210 7 -130 -2 -167 -6 -230 -26 -94 -29 -113 -30 -236 -14 -54
7 -105 13 -113 14 -24 0 6 26 62 54 110 53 213 82 327 92 41 4 76 7 77 8 7 5
223 -5 293 -14z m48 -152 c13 -1 17 -18 5 -19 -88 -6 -464 -7 -453 0 8 5 40
12 70 16 30 4 57 9 59 11 4 4 275 -3 319 -8z"/>
<path d="M777 2950 c-38 -30 -52 -80 -33 -123 31 -75 2 -71 634 -72 351 0 577
4 596 10 34 11 76 66 71 93 -2 9 -4 25 -4 35 -1 11 -15 32 -32 48 l-31 29
-588 0 c-574 0 -588 0 -613 -20z"/>
</g>
</svg>
