<?xml version="1.0" standalone="no"?>
<!DOCTYPE svg PUBLIC "-//W3C//DTD SVG 20010904//EN"
 "http://www.w3.org/TR/2001/REC-SVG-20010904/DTD/svg10.dtd">
<svg version="1.0" xmlns="http://www.w3.org/2000/svg"
 width="700.000000pt" height="700.000000pt" viewBox="0 0 700.000000 700.000000"
 preserveAspectRatio="xMidYMid meet">
<metadata>
Created by potrace 1.14, written by Peter Selinger 2001-2017
</metadata>
<g transform="translate(0.000000,700.000000) scale(0.100000,-0.100000)"
fill="#000000" stroke="none">
<path d="M3339 6976 c-36 -13 -88 -38 -115 -56 -64 -42 -3060 -3035 -3124
-3120 -75 -99 -95 -161 -95 -300 0 -139 19 -201 95 -300 72 -95 1925 -1942
1981 -1974 207 -118 444 -90 609 74 75 75 114 146 138 256 22 103 7 209 -44
314 -35 72 -66 104 -719 760 -463 464 -690 700 -706 730 -20 38 -24 60 -24
140 0 80 4 102 23 140 17 31 405 427 1282 1305 832 833 1267 1276 1285 1308
110 192 83 441 -64 594 -102 105 -214 153 -361 153 -74 0 -110 -6 -161 -24z"/>
<path d="M4570 5839 c-143 -24 -291 -136 -354 -269 -70 -146 -70 -292 0 -439
35 -74 59 -99 729 -771 769 -772 725 -720 725 -860 0 -143 108 -24 -1295
-1430 -768 -770 -1274 -1285 -1293 -1315 -56 -91 -74 -166 -70 -285 3 -97 6
-111 40 -183 65 -137 176 -230 322 -272 45 -13 84 -16 155 -13 84 4 106 10
176 42 l80 37 1562 1562 c1261 1260 1568 1572 1592 1617 81 153 82 317 4 475
-19 39 -237 263 -1001 1028 -538 538 -997 991 -1022 1007 -93 59 -238 88 -350
69z"/>
<path d="M2388 4260 c-182 -33 -367 -144 -477 -287 -109 -141 -161 -293 -161
-473 0 -348 217 -635 560 -741 97 -30 290 -33 388 -6 214 58 437 195 705 431
l97 86 98 -86 c203 -180 401 -315 557 -381 126 -54 197 -68 340 -67 119 0 138
3 222 32 207 71 366 208 458 395 102 208 102 466 0 674 -92 187 -251 324 -458
395 -84 29 -103 32 -222 32 -143 1 -214 -13 -340 -67 -156 -66 -354 -201 -557
-381 l-98 -86 -97 86 c-265 233 -486 371 -688 426 -79 22 -254 32 -327 18z
m380 -336 c203 -41 406 -192 499 -370 l28 -54 -28 -54 c-40 -77 -125 -175
-198 -230 -251 -189 -555 -205 -826 -45 -108 65 -283 268 -283 329 0 33 79
148 151 220 180 179 417 253 657 204z m1750 0 c203 -41 406 -192 499 -370 l28
-54 -28 -54 c-40 -77 -125 -175 -198 -230 -251 -189 -555 -205 -826 -45 -108
65 -283 268 -283 329 0 33 78 147 150 219 178 180 418 254 658 205z"/>
<path d="M2685 3756 c-36 -15 -76 -60 -94 -103 -11 -28 -14 -29 -74 -29 -79 1
-124 -23 -154 -84 -29 -56 -29 -96 0 -150 30 -57 58 -70 260 -121 145 -37 169
-41 181 -28 25 25 109 348 103 393 -14 100 -131 164 -222 122z"/>
<path d="M4185 3756 c-55 -25 -95 -85 -95 -143 0 -39 90 -356 106 -372 12 -13
36 -9 181 28 202 51 230 64 260 121 29 54 29 94 1 150 -31 61 -76 85 -155 84
l-62 0 -16 37 c-42 92 -136 132 -220 95z"/>
<path d="M2883 2440 c-81 -33 -43 -171 81 -296 82 -82 170 -134 299 -177 86
-29 102 -31 237 -31 135 0 151 2 237 31 118 39 208 90 282 159 70 64 115 131
132 195 16 59 6 95 -31 114 -27 14 -36 14 -92 -1 -302 -78 -767 -78 -1058 1
-63 17 -58 17 -87 5z"/>
</g>
</svg>
